<?xml version="1.0" encoding="utf-8"?>
<!-- Generator: Adobe Illustrator 18.0.0, SVG Export Plug-In . SVG Version: 6.00 Build 0)  -->
<!DOCTYPE svg PUBLIC "-//W3C//DTD SVG 1.1//EN" "http://www.w3.org/Graphics/SVG/1.1/DTD/svg11.dtd">
<svg version="1.1" id="Layer_1" xmlns="http://www.w3.org/2000/svg" xmlns:xlink="http://www.w3.org/1999/xlink" x="0px" y="0px"
	 viewBox="0 0 600 600" enable-background="new 0 0 600 600" xml:space="preserve">
<circle fill="none" stroke="#000000" stroke-width="19" stroke-miterlimit="10" cx="300" cy="300" r="285"/>
<path d="M153.5,450V190c0-5.5,4.7-10,10.5-10h47.1c5.8,0,10.5-4.5,10.5-10v0c0-5.5-4.7-10-10.5-10h-136c-5.8,0-10.5,4.5-10.5,10v0
	c0,5.5,4.7,10,10.5,10h47.1c5.8,0,10.5,4.5,10.5,10v260c0,5.5,4.7,10,10.5,10h0C148.9,460,153.5,455.5,153.5,450z"/>
<g>
	<path d="M377.2,460h-10.5c-6.1,0-11.4-4.1-12.7-9.8l-29.3-130.4c-1.3-5.7-6.6-9.8-12.7-9.8h-25.5c-6.1,0-11.4,4.1-12.7,9.8
		l-29.4,130.5c-1.3,5.7-6.6,9.8-12.7,9.8h-10.5h0.1l65.3-290.2c1.3-5.7,6.6-9.8,12.7-9.8h0c6.1,0,11.4,4.1,12.7,9.8l65.3,290.7"/>
	<path fill="none" d="M295.2,193.4l-14.6,81.9c-0.4,2.5,1.6,4.7,4.2,4.7H314c2.6,0,4.6-2.3,4.2-4.7l-14.6-81.9
		C302.8,188.9,296,188.9,295.2,193.4z"/>
</g>
<path d="M378.5,160l34.2,116.5c2.3,8,9.9,13.5,18.6,13.5h29.8c12.3,0,21.5,10.8,18.9,22.3l-25.4,113.1c-1.9,8.5-9.8,14.6-18.9,14.6
	h-19v-0.1v20v0.1h35.5c9.1,0,17-6.1,18.9-14.6L535.4,160h-0.1h-5.3c-9.1,0-17,6.1-18.9,14.6l-18.3,80.9c-1.9,8.5-9.8,14.6-18.9,14.6
	h-26.5c-8.6,0-16.1-5.4-18.5-13.3l-25.5-83.5c-2.4-7.9-10-13.3-18.5-13.3h-6.5"/>
</svg>
